<svg id="SvgjsSvg1001" width="288" height="288" xmlns="http://www.w3.org/2000/svg" version="1.1" xmlns:xlink="http://www.w3.org/1999/xlink" xmlns:svgjs="http://svgjs.com/svgjs"><defs id="SvgjsDefs1002"></defs><g id="SvgjsG1008" transform="matrix(0.9167,0,0,0.9167,11.994808958157165,11.997282944869994)"><svg xmlns="http://www.w3.org/2000/svg" width="288" height="288" version="1.0" viewBox="0 0 800 800"><g transform="matrix(.1 0 0 -.1 0 800)" fill="#ffff00" class="color000 svgShape"><path d="M2104 6935 c-131 -28 -248 -96 -351 -203 -109 -113 -150 -196 -228-462 -38 -131 -96 -327 -175 -595 -113 -382 -139 -472 -145 -508 -4 -20 -11
-40 -16 -43 -5 -3 -54 12 -110 32 -98 37 -101 39 -125 85 -70 140 -246 224
-464 223 -224 -2 -398 -83 -464 -217 -58 -115 -10 -232 132 -321 99 -62 274
-96 406 -78 66 9 94 7 184 -9 59 -11 113 -22 119 -24 8 -3 -10 -35 -47 -87
-77 -107 -151 -250 -189 -363 -61 -181 -61 -189 -61 -1074 0 -785 1 -808 21
-881 29 -107 74 -185 149 -261 117 -119 183 -139 457 -139 l193 0 0 -317 c0
-234 4 -331 14 -368 27 -102 103 -190 204 -238 l67 -32 265 0 c253 0 268 1
321 23 64 26 139 87 174 142 53 84 56 108 55 462 l0 328 1489 0 1489 0 -3
-282 c-2 -156 1 -314 6 -351 22 -166 138 -287 304 -318 35 -6 146 -9 279 -7
199 3 227 6 276 26 107 43 204 150 229 254 7 30 11 163 11 361 l0 315 203 4
202 3 68 32 c149 71 244 191 294 373 17 60 18 127 18 890 l0 825 -28 108 c-44
174 -99 301 -194 445 -30 46 -53 85 -51 87 2 2 64 15 139 29 118 23 147 25
218 17 325 -36 610 153 551 365 -16 57 -90 140 -157 176 -97 52 -187 73 -318
73 -66 0 -145 -7 -175 -14 -131 -32 -261 -124 -298 -212 -17 -41 -21 -43 -136
-85 l-117 -44 -35 26 c-20 16 -34 35 -34 48 0 20 -29 125 -150 531 -26 88 -82
279 -125 425 -110 379 -124 416 -189 513 -90 136 -211 234 -363 295 l-68 27
-1830 2 c-1496 1 -1841 -1 -1891 -12z m1706 -351 l0 -44 -190 0 c-214 0 -236
-5 -287 -63 -54 -61 -57 -149 -8 -213 55 -71 35 -69 576 -69 l486 0 37 29 c60
46 78 81 74 151 -4 74 -30 114 -91 144 -40 19 -61 21 -245 21 l-202 0 0 45 0
45 743 0 c806 0 792 1 917 -56 146 -66 270 -185 336 -319 41 -84 281 -786 297
-867 36 -194 -96 -354 -301 -366 l-78 -4 -18 65 c-23 84 -91 200 -157 267
-204 207 -506 256 -762 125 -92 -48 -162 -108 -226 -193 -49 -65 -111 -200
-111 -242 l0 -20 -1333 0 c-1322 0 -1334 0 -1394 21 -78 26 -144 83 -179 155
-22 45 -27 68 -26 132 0 70 8 100 85 327 171 503 199 580 225 630 36 68 182
211 262 258 36 21 94 48 130 60 64 22 75 22 745 27 374 3 683 4 688 2 4 -2 7
-23 7 -48z m1566 -1274 c72 -25 116 -53 171 -110 41 -42 84 -112 98 -157 l6
-23 -415 0 c-237 0 -416 4 -416 9 0 14 33 83 63 128 25 40 102 105 157 134 85
44 238 52 336 19z m-3301 -1126 c294 -76 496 -338 495 -638 -1 -178 -69 -335
-200 -460 -347 -332 -906 -198 -1067 256 -55 156 -41 350 39 509 84 169 275
311 458 342 64 11 220 6 275 -9z m4111 -4 c172 -44 327 -171 409 -334 97 -194
98 -390 2 -586 -74 -151 -223 -278 -390 -333 -48 -15 -90 -20 -187 -21 -113
-1 -133 2 -205 27 -170 60 -303 174 -374 319 -54 110 -71 182 -71 298 0 120
20 202 72 302 83 159 221 273 398 326 92 28 241 29 346 2z m-1107 -204 c45
-47 20 -130 -41 -141 -18 -3 -478 -4 -1021 -3 l-989 3 -24 28 c-31 36 -31 77
1 111 l24 26 1014 0 1014 0 22 -24z m-11 -356 c28 -17 32 -25 32 -62 0 -29 -7
-49 -22 -65 l-21 -23 -1014 0 -1014 0 -24 25 c-35 34 -33 78 4 116 l29 29 999
0 c977 0 999 0 1031 -20z m7 -343 c35 -29 37 -89 6 -121 l-22 -21 -1002 -3
c-702 -2 -1010 1 -1028 9 -43 17 -63 85 -36 120 30 39 24 38 1054 39 l1002 0
26 -23z" fill="#ffff00" class="color000 svgShape"></path><path d="M5180 6553c-63-7-160-44-208-80-210-157-259-417-119-631 157-240 503-274 705-71 88 88 132 197 132 323 0 136-44 238-140 330-101 97-236 144-370 129zM1789 3971c-68-22-159-81-200-130-223-269-76-667 268-722 136-22 265 22 369 125 160 161 176 389 40 574-105 142-307 207-477 153zM5900 3974c-119-32-222-121-283-244-30-61-32-72-32-175 0-106 1-113 37-188 159-332 623-338 785-10 34 69 38 85 41 175 4 84 1 108-18 161-81 222-305 341-530 281z" fill="#ffff00" class="color000 svgShape"></path></g></svg></g></svg>