<svg id="SvgjsSvg1013" width="288" height="288" xmlns="http://www.w3.org/2000/svg" version="1.1" xmlns:xlink="http://www.w3.org/1999/xlink" xmlns:svgjs="http://svgjs.com/svgjs"><defs id="SvgjsDefs1014"></defs><g id="SvgjsG1015"><svg xmlns="http://www.w3.org/2000/svg" width="288" height="288" version="1.0" viewBox="0 0 199 73"><g transform="matrix(.1 0 0 -.1 0 73)" fill="#ffb634" class="color000 svgShape"><path d="M1124 606c-97-19-137-32-217-74-99-51-107-64-107-183 0-118 7-129 84-129 53 0 53 0 69-40 12-31 25-44 53-56 66-28 127 0 153 69l11 27 208 0 208 0 17-39c43-96 168-89 206 11 9 24 16 27 68 30l58 3 3 57c2 45-1 61-15 75-10 10-74 34-142 53-122 34-126 36-194 98-38 36-89 73-113 84-59 25-249 33-350 14zm336-63c25-11 61-37 80-58l35-37-120 6c-272 14-283 16-289 39-10 40-6 65 12 71 9 3 67 4 127 2 85-2 121-8 155-23zm-347-30c4-20 5-39 2-41-2-2-47-1-101 3-107 8-107 11 1 52 84 31 91 30 98-14zM227 523c-4-3-7-15-7-25 0-17 14-18 249-18 139 0 252 4 255 9 4 5 3 16 0 25-5 14-36 16-248 16-134 0-246-3-249-7zM40 335c-10-12-10-18 0-30 10-13 50-15 244-15 127 0 237 4 244 9 8 5 12 17 10 27-3 18-17 19-244 22-206 2-243 0-254-13zM224 155c-4-8-4-22 0-30 8-22 477-22 496 0 10 12 10 18 0 30-19 22-488 22-496 0z" fill="#ffb634" class="color000 svgShape"></path></g></svg></g></svg>