<svg id="SvgjsSvg1019" width="288" height="288" xmlns="http://www.w3.org/2000/svg" version="1.1" xmlns:xlink="http://www.w3.org/1999/xlink" xmlns:svgjs="http://svgjs.com/svgjs"><defs id="SvgjsDefs1020"></defs><g id="SvgjsG1021"><svg xmlns="http://www.w3.org/2000/svg" enable-background="new -6 7.7 186.3 186.3" viewBox="-6 7.7 186.3 186.3" width="288" height="288"><switch><g fill="#58cc52" class="color000 svgShape"><path fill="#ffffff" stroke="#0fd605" stroke-miterlimit="10" stroke-width="4" d="M122.4,96.6c-23.5,0-47.1,0-70.5,0C39,96.3,28.6,85.8,28.6,73.3l0,0c0-12.4,10.3-25.8,23.1-28
				c23.5-3.6,47.5-3.6,70.9,0c12.7,2.2,23,15.5,23.1,28l0,0C145.6,85.8,135.2,96.3,122.4,96.6z" class="colorfff svgShape colorStroked60a05 svgStroke"></path><path fill="none" stroke="#0fd605" stroke-miterlimit="10" stroke-width="4" d="M122.4,96.6c-23.5,0-47.1,0-70.5,0C39,96.3,28.6,85.8,28.6,73.3l0,0c0-12.4,10.3-25.8,23.1-28
				c23.5-3.6,47.5-3.6,70.9,0c12.7,2.2,23,15.5,23.1,28l0,0C145.6,85.8,135.2,96.3,122.4,96.6z" class="colorStroked60a05 svgStroke"></path><path fill="#0fd605" stroke="#0fd605" stroke-miterlimit="10" d="M139.4,143H34.9C15.8,143,0,127.3,0,108.1l0,0C0,89,15.6,73.2,34.9,73.2h104.5c19.1,0,34.9,15.6,34.9,34.9
			l0,0C174.2,127.3,158.5,143,139.4,143z" class="colord60a05 svgShape colorStroked60a05 svgStroke"></path><path fill="#0fd605" d="M38 159H16.7c-2.2 0-3.8-1.8-3.8-3.8v-38.7c0-2.2 1.7-3.8 3.8-3.8H38c2.2 0 3.8 1.7 3.8 3.8v38.7C41.8 157.3 40.1 159 38 159zM156.2 159h-21.3c-2.1 0-3.8-1.8-3.8-3.8v-38.7c0-2.2 1.8-3.8 3.8-3.8h21.3c2.2 0 3.8 1.7 3.8 3.8v38.7C160.1 157.3 158.4 159 156.2 159z" class="colord60a05 svgShape"></path><circle cx="28.6" cy="108.1" r="11.2" fill="#ffffff" stroke="#ffffff" stroke-miterlimit="10" class="colorfff svgShape colorStrokefff svgStroke"></circle><circle cx="145.6" cy="108.1" r="11.2" fill="#ffffff" stroke="#ffffff" stroke-miterlimit="10" class="colorfff svgShape colorStrokefff svgStroke"></circle><line x1="47.3" x2="127" y1="103.9" y2="103.9" fill="none" stroke="#ffffff" stroke-linecap="round" stroke-linejoin="round" stroke-miterlimit="10" stroke-width="4" class="colorStrokefff svgStroke"></line><line x1="47.3" x2="127" y1="112.7" y2="112.7" fill="none" stroke="#ffffff" stroke-linecap="round" stroke-linejoin="round" stroke-miterlimit="10" stroke-width="4" class="colorStrokefff svgStroke"></line></g></switch></svg></g></svg>