<svg id="SvgjsSvg1019" width="288" height="288" xmlns="http://www.w3.org/2000/svg" version="1.1" xmlns:xlink="http://www.w3.org/1999/xlink" xmlns:svgjs="http://svgjs.com/svgjs"><defs id="SvgjsDefs1020"></defs><g id="SvgjsG1021"><svg xmlns="http://www.w3.org/2000/svg" width="288" height="288" version="1.0" viewBox="0 0 200 200"><g transform="matrix(.1 0 0 -.1 0 200)" fill="#ff8c00" class="color000 svgShape"><path d="M219 1734c-104-67-59-227 64-227 48 0 86 27 111 77 37 74-14 156-101 163-33 2-56-1-74-13zM71 1452c-65-35-71-59-71-309 0-184 3-224 15-237 8-8 15-22 15-30 0-9-7-16-15-16-13 0-15-23-15-150l0-150 50 0 50 0 0 150c0 127-2 150-15 150-19 0-19 34 0 50 12 10 15 46 15 206 0 123 4 194 10 194 7 0 10-175 10-504 0-494 0-504 21-530 26-33 77-36 105-5 18 20 19 42 22 315 2 250 5 294 17 294 13 0 15-43 15-295 0-282 1-296 20-315 26-26 81-26 103-2 15 17 17 68 17 530 0 448 2 512 15 512 12 0 15-18 15-104 0-57 3-111 6-120 3-8 53-31 115-51 100-34 109-39 103-58-20-62-35-85-64-95l-30-11 0-135 0-136 700 0 700 0 0 136 0 135-28 10c-27 9-36 28-112 232-45 122-86 226-90 231-17 18-325 58-460 59-119 1-309-20-451-49-24-4-32-19-74-135-28-74-53-128-59-126-6 2-43 15-82 27l-72 23-3 117c-4 129-14 155-72 190-29 18-51 20-212 20-156 0-185-3-214-18zm1513-180l108-17 59-159c33-87 58-161 55-163-2-3-51 2-108 11-295 43-460 44-747 6-84-11-155-19-156-18-7 7 114 313 126 320 8 5 75 17 149 28 157 23 337 20 514-8zm-713-461c20-20 29-39 29-61 0-43-47-90-90-90-43 0-90 47-90 90 0 22 9 41 29 61 40 39 82 39 122 0zm968 14c33-16 41-33 41-81 0-64-73-104-132-73-11 6-26 26-34 45-12 29-12 39 0 68 23 55 69 70 125 41z" fill="#ff8c00" class="color000 svgShape"></path><path d="M1466 1209c-87-80-39-212 78-212 110 0 162 121 87 205-22 24-37 32-78 35-47 5-54 3-87-28zM600 486c0-63 1-65 28-68 26-3 27-5 32-76 3-50 10-76 20-82 23-15 166-12 178 3 6 7 12 44 14 82l3 70 428 3 427 2 0-68c0-92 11-102 113-102 94 0 107 13 107 107 0 61 1 63 25 63 24 0 25 2 25 65l0 65-700 0-700 0 0-64z" fill="#ff8c00" class="color000 svgShape"></path></g></svg></g></svg>