<?xml version="1.0" encoding="iso-8859-1"?>
<!-- Generator: Adobe Illustrator 17.1.0, SVG Export Plug-In . SVG Version: 6.00 Build 0)  -->
<!DOCTYPE svg PUBLIC "-//W3C//DTD SVG 1.1//EN" "http://www.w3.org/Graphics/SVG/1.1/DTD/svg11.dtd">
<svg version="1.1" id="Capa_1" xmlns="http://www.w3.org/2000/svg" xmlns:xlink="http://www.w3.org/1999/xlink" x="0px" y="0px"
	 viewBox="0 0 258.41 258.41" style="enable-background:new 0 0 258.41 258.41;" xml:space="preserve">
<g>
	<path d="M193.26,110.839c-0.877,0-1.777,0.126-2.677,0.373l-10.172,2.802l-10.562-25.73c-2.993-7.289-11.838-13.219-19.717-13.219
		H51.282c-7.88,0-16.724,5.93-19.716,13.219l-10.548,25.695l-10.046-2.767c-0.898-0.248-1.799-0.373-2.676-0.373
		c-4.808,0-8.297,3.672-8.297,8.732v5.997c0,5.906,4.806,10.712,10.712,10.712h1.151l-1.705,4.153
		c-2.78,6.771-5.043,18.236-5.043,25.558v51.115c0,5.906,4.806,10.712,10.712,10.712h13.99c5.906,0,10.712-4.805,10.712-10.712
		v-12.765h120.357v12.765c0,5.906,4.806,10.712,10.712,10.712h13.988c5.906,0,10.712-4.805,10.712-10.712v-51.115
		c0-7.322-2.263-18.788-5.043-25.558l-1.705-4.153h1.294c5.906,0,10.712-4.805,10.712-10.712v-5.997
		C201.557,114.512,198.067,110.839,193.26,110.839z M28.698,130.462l15.978-38.919c1.79-4.36,7.11-7.927,11.823-7.927h88.418
		c4.713,0,10.033,3.567,11.823,7.927l15.978,38.919c1.789,4.36-0.602,7.927-5.316,7.927H34.014
		C29.3,138.39,26.909,134.822,28.698,130.462z M64.365,179.689c0,2.357-1.929,4.285-4.284,4.285H29.729
		c-2.357,0-4.285-1.928-4.285-4.285v-14.566c0-2.356,1.928-4.285,4.285-4.285h30.352c2.355,0,4.284,1.928,4.284,4.285V179.689z
		 M175.684,179.689c0,2.357-1.929,4.285-4.284,4.285h-30.352c-2.355,0-4.284-1.928-4.284-4.285v-14.566
		c0-2.356,1.929-4.285,4.284-4.285h30.352c2.355,0,4.284,1.928,4.284,4.285V179.689z"/>
	<path d="M232.864,30.593c-15.995,0-25.545,9.19-25.545,24.583v44.064c0,13.708,7.589,22.478,20.545,24.237v98.197
		c0,2.761,2.238,5,5,5c2.762,0,5-2.239,5-5v-98.197c12.957-1.759,20.546-10.528,20.546-24.237V55.175
		C258.41,39.783,248.86,30.593,232.864,30.593z M232.864,44.006c4.944,0,8.967,4.022,8.967,8.966c0,4.944-4.022,8.966-8.967,8.966
		c-4.944,0-8.967-4.022-8.967-8.966C223.897,48.028,227.92,44.006,232.864,44.006z M232.864,69.755c4.944,0,8.967,4.022,8.967,8.966
		c0,4.944-4.022,8.966-8.967,8.966c-4.944,0-8.967-4.022-8.967-8.966C223.897,73.777,227.92,69.755,232.864,69.755z
		 M232.864,113.664c-5.02,0-9.088-4.069-9.088-9.088c0-5.02,4.068-9.088,9.088-9.088c5.02,0,9.089,4.069,9.089,9.088
		C241.953,109.594,237.884,113.664,232.864,113.664z"/>
</g>
<g>
</g>
<g>
</g>
<g>
</g>
<g>
</g>
<g>
</g>
<g>
</g>
<g>
</g>
<g>
</g>
<g>
</g>
<g>
</g>
<g>
</g>
<g>
</g>
<g>
</g>
<g>
</g>
<g>
</g>
</svg>
