<svg id="SvgjsSvg1001" width="288" height="288" xmlns="http://www.w3.org/2000/svg" version="1.1" xmlns:xlink="http://www.w3.org/1999/xlink" xmlns:svgjs="http://svgjs.com/svgjs"><defs id="SvgjsDefs1002"></defs><g id="SvgjsG1008" transform="matrix(0.9167,0,0,0.9167,11.974223489741973,11.99426744127274)"><svg xmlns="http://www.w3.org/2000/svg" width="288" height="288" version="1.0" viewBox="0 0 512 512"><g transform="matrix(.1 0 0 -.1 0 512)" fill="#00bfff" class="color000 svgShape"><path d="M1735 4959c-137-21-379-81-398-99-7-6 149-255 182-292 4-5 56 3 116 17 122 28 363 47 351 27-13-22-162-114-255-159-53-26-97-47-99-49-5-4 187-294 194-294 16 0 223 115 288 160 105 72 201 173 239 250 27 55 32 75 32 140 0 64-4 83-29 128-69 124-212 183-440 181-67-1-148-5-181-10zM1008 4726c-193-98-368-245-422-357-60-124-42-244 49-335l54-54 388 0c373 0 391 1 460 23l73 22-100 151-101 150-102-23c-122-27-306-46-337-35-21 8-15 14 66 68 49 32 130 79 181 103l91 44-96 144c-52 78-100 143-106 143-6 0-50-20-98-44zM2300 4277c-77-74-174-140-307-209-54-28-99-52-101-53-1-1 0-10 4-19 6-15 69-16 746-16l740 0-3 129c-4 140-11 159-73 205-27 20-40 21-484 23l-457 3-65-63zM412 3486c3-259 4-276 24-303 47-65 28-63 674-63 566 0 586 1 618 20 18 11 41 34 52 52 19 31 20 48 18 298l-3 265-693 3-693 2 3-274zM2062 3752c1-5 95-149 208-320l205-312 396 0c394 0 396 0 429 23 18 12 43 35 54 50 20 27 21 40 21 295l0 267-658 3c-362 1-657-2-655-6zM1918 3378c-3-156-6-177-26-215l-22-43 170 0 170 0-57 88c-76 118-214 325-223 335-5 5-10-69-12-165zM1515 2965c-518-73-982-365-1276-803-159-236-223-432-236-714l-6-138 137 0 138 0 29-29 29-29 0-222 0-221-25-24c-23-24-29-25-165-25l-140 0 0-90c0-129 24-180 105-223 37-20 58-22 258-25l217-4 0 59c0 131 57 261 158 361 217 216 538 217 752 2 103-103 160-231 160-362l0-58 685 0 685 0 0 43c1 226 158 438 380 513 82 28 244 26 330-5 150-52 276-174 331-320 11-31 25-95 31-143l11-88 416 0c446 1 457 2 525 53 56 43 71 87 70 202-3 341-216 668-541 829-98 48-178 72-387 116-226 47-251 61-316 178-142 254-178 315-230 387-249 345-610 602-1008 719-208 62-266 68-657 72-271 2-385-1-460-11zm263-732l-3-478-595-3c-327-2-615 0-639 3-30 5-54 16-73 35-57 58-31 137 112 329 261 352 698 578 1138 589l62 2-2-477zm482 466c478-59 861-286 1101-654 76-115 95-165 83-212-5-21-21-45-37-57-28-21-37-21-663-24l-634-3 0 481 0 480 33 0c18 0 71-5 117-11zm2319-1419c171-92 300-327 248-452-24-57-68-80-142-75-85 6-155 45-240 131-157 159-189 356-69 421 45 25 129 14 203-25z" fill="#00bfff" class="color000 svgShape"></path><path d="M1047 770c-82-21-146-66-191-135-143-217 20-499 279-483 252 16 381 301 227 503-67 89-210 141-315 115zM3487 769c-58-14-108-43-153-91-51-53-69-88-82-158-37-201 119-379 323-368 222 11 362 243 267 443-29 60-86 121-139 148-32 17-123 37-156 36-12-1-39-5-60-10z" fill="#00bfff" class="color000 svgShape"></path></g></svg></g></svg>