<svg width="20" height="20" viewBox="0 0 20 20" fill="none" xmlns="http://www.w3.org/2000/svg">
<path d="M9.41079 3.57733C9.73622 3.25189 10.2639 3.25189 10.5893 3.57733L13.0893 6.07733C13.4147 6.40277 13.4147 6.9304 13.0893 7.25584C12.7639 7.58128 12.2362 7.58128 11.9108 7.25584L10.8334 6.17843V12.4999C10.8334 12.9602 10.4603 13.3333 10 13.3333C9.5398 13.3333 9.16671 12.9602 9.16671 12.4999V6.17843L8.0893 7.25584C7.76386 7.58128 7.23622 7.58128 6.91079 7.25584C6.58535 6.9304 6.58535 6.40277 6.91079 6.07733L9.41079 3.57733Z" fill="#28094F"/>
<path d="M5.00004 11.6666C5.00004 11.2063 4.62694 10.8333 4.16671 10.8333C3.70647 10.8333 3.33337 11.2063 3.33337 11.6666V12.4999C3.33337 14.8011 5.19885 16.6666 7.50004 16.6666H12.5C14.8012 16.6666 16.6667 14.8011 16.6667 12.4999V11.6666C16.6667 11.2063 16.2936 10.8333 15.8334 10.8333C15.3731 10.8333 15 11.2063 15 11.6666V12.4999C15 13.8806 13.8808 14.9999 12.5 14.9999H7.50004C6.11933 14.9999 5.00004 13.8806 5.00004 12.4999V11.6666Z" fill="#28094F"/>
</svg>
